<svg width="33" height="33" viewBox="0 0 33 33" fill="none" xmlns="http://www.w3.org/2000/svg">
<path d="M6.5179 18.6645L9.38032 19.7024C9.81512 19.8555 10.1051 20.3578 10.0203 20.8109L9.4879 23.8087C9.52408 24.4114 10.0879 24.848 10.6902 24.7312L12.062 24.4472C12.3941 24.3825 12.7462 24.0522 12.834 23.7244L13.6736 20.6185C13.7271 20.3913 13.9393 20.1187 14.1384 20.0037L16.6066 18.5787C16.9703 18.3687 17.2985 18.5372 17.355 18.9549L17.974 24.2671C18.0732 25.0989 18.7433 25.4395 19.4708 25.0195L20.5879 24.3745C21.1682 24.0395 21.585 23.2215 21.5002 22.5546L20.7923 16.5085C20.7729 16.3349 20.8848 16.1087 21.0407 16.0187L23.6387 14.5187C24.4528 14.0487 25.0691 12.8961 25.0215 11.9537C25.0014 11.6189 24.8264 11.3158 24.5465 11.1309C23.7541 10.6185 22.4391 10.5809 21.6251 11.0509L19.027 12.5509C18.8711 12.6409 18.6192 12.6247 18.4786 12.5211L13.6015 8.8937C13.075 8.48176 12.1582 8.43375 11.5779 8.76875L10.4608 9.41375C9.73329 9.83375 9.69322 10.5843 10.364 11.0862L14.655 14.2784C14.9922 14.5225 14.9703 14.9046 14.6066 15.1146L12.1384 16.5396C11.9393 16.6546 11.5971 16.702 11.3786 16.6434L8.26902 15.8176C7.94117 15.7297 7.4878 15.8645 7.25701 16.1247L6.3252 17.1708C5.9129 17.6167 6.00042 18.3282 6.5179 18.6645Z" stroke="#292D32" stroke-width="1.5" stroke-linecap="round" stroke-linejoin="round"/>
</svg>
