<svg width="18" height="18" viewBox="0 0 18 18" fill="none" xmlns="http://www.w3.org/2000/svg">
<path d="M6.24971 16.2327C6.18937 16.2327 6.13008 16.2169 6.07772 16.187C6.02535 16.157 5.98173 16.1138 5.95119 16.0618C4.6573 13.8574 1.20944 9.16601 1.17475 9.11887C1.12549 9.05191 1.10197 8.96945 1.10849 8.88658C1.11501 8.80371 1.15114 8.72595 1.21027 8.66752L2.27012 7.62023C2.3277 7.56333 2.4034 7.52841 2.48406 7.52154C2.56472 7.51467 2.64523 7.53629 2.71161 7.58264L6.17754 10.0028C8.48182 7.04264 10.6232 4.99974 12.0307 3.79603C13.6083 2.44661 14.6113 1.84026 14.6532 1.81499C14.707 1.78269 14.7686 1.76563 14.8313 1.76563H16.5459C16.6161 1.76561 16.6846 1.78693 16.7424 1.82676C16.8002 1.86658 16.8445 1.92303 16.8694 1.98861C16.8944 2.0542 16.8989 2.12582 16.8822 2.19399C16.8655 2.26216 16.8285 2.32366 16.7761 2.37032C14.2343 4.63417 11.5916 8.23116 9.8223 10.8499C7.89896 13.6965 6.56378 16.0346 6.55052 16.0579C6.52047 16.1106 6.47706 16.1546 6.42466 16.1852C6.37226 16.2159 6.31272 16.2323 6.252 16.2327L6.24971 16.2327Z" fill="#463998"/>
</svg>
